<?xml version="1.0" encoding="UTF-8"?>
<svg width="1200pt" height="1200pt" version="1.1" viewBox="0 0 1200 1200" xmlns="http://www.w3.org/2000/svg">
 <path d="m900 150h-600c-82.707 0-150 67.293-150 150v525c0 69.73 47.906 128.34 112.5 145.07v23.68c0 31.012 25.238 56.25 56.25 56.25h37.5c31.012 0 56.25-25.238 56.25-56.25v-18.75h337.5v18.75c0 31.012 25.238 56.25 56.25 56.25h37.5c31.012 0 56.25-25.238 56.25-56.25v-18.75c82.707 0 150-67.293 150-150v-525c0-82.707-67.293-150-150-150zm-525 843.75c0 10.352-8.418 18.75-18.75 18.75h-37.5c-10.332 0-18.75-8.3984-18.75-18.75v-18.75h75zm487.5 0c0 10.352-8.3984 18.75-18.75 18.75h-37.5c-10.352 0-18.75-8.3984-18.75-18.75v-18.75h75zm150-168.75c0 62.043-50.457 112.5-112.5 112.5h-600c-62.043 0-112.5-50.457-112.5-112.5v-525c0-62.043 50.457-112.5 112.5-112.5h600c62.043 0 112.5 50.457 112.5 112.5z"/>
 <path d="m862.5 243.75h-525c-51.695 0-93.75 42.055-93.75 93.75v18.75c-20.68 0-37.5 16.82-37.5 37.5v37.5c0 20.68 16.82 37.5 37.5 37.5v187.5c-20.68 0-37.5 16.82-37.5 37.5v37.5c0 20.68 16.82 37.5 37.5 37.5v18.75c0 51.695 42.055 93.75 93.75 93.75h525c51.695 0 93.75-42.055 93.75-93.75v-450c0-51.695-42.055-93.75-93.75-93.75zm-618.75 150h37.5v37.5h-37.5zm0 300h37.5v37.5h-37.5zm675 93.75c0 31.012-25.238 56.25-56.25 56.25h-525c-31.012 0-56.25-25.238-56.25-56.25v-18.75c20.68 0 37.5-16.82 37.5-37.5v-37.5c0-20.68-16.82-37.5-37.5-37.5v-187.5c20.68 0 37.5-16.82 37.5-37.5v-37.5c0-20.68-16.82-37.5-37.5-37.5v-18.75c0-31.012 25.238-56.25 56.25-56.25h525c31.012 0 56.25 25.238 56.25 56.25z"/>
 <path d="m562.5 384.38c-103.39 0-187.5 84.113-187.5 187.5s84.113 187.5 187.5 187.5 187.5-84.113 187.5-187.5-84.113-187.5-187.5-187.5zm91.949 69.242-40.199 40.199c-14.852-9.8828-32.625-15.695-51.75-15.695-19.012 0-36.676 5.7734-51.469 15.543l-40.238-40.238c25.387-19.707 57.148-31.555 91.707-31.555 34.555 0 66.523 11.926 91.949 31.742zm-148.2 118.26c0-31.012 25.238-56.25 56.25-56.25s56.25 25.238 56.25 56.25-25.238 56.25-56.25 56.25-56.25-25.238-56.25-56.25zm-93.75 0c0-34.668 11.926-66.523 31.742-91.949l40.199 40.199c-9.8828 14.852-15.695 32.625-15.695 51.75s5.8125 36.918 15.695 51.75l-40.199 40.199c-19.82-25.426-31.742-57.301-31.742-91.949zm58.293 118.45 40.238-40.238c14.793 9.7695 32.457 15.543 51.469 15.543 19.125 0 36.918-5.8125 51.75-15.695l40.199 40.199c-25.426 19.82-57.301 31.742-91.949 31.742s-66.32-11.852-91.707-31.555zm210.15-26.738-40.238-40.238c9.7695-14.793 15.543-32.457 15.543-51.469s-5.7734-36.676-15.543-51.469l40.238-40.238c19.707 25.387 31.555 57.148 31.555 91.707 0 34.555-11.852 66.32-31.555 91.707z"/>
 <path d="m843.75 465.75c-10.367 0-18.75 8.3828-18.75 18.75v156c0 10.367 8.3828 18.75 18.75 18.75s18.75-8.3828 18.75-18.75v-156c0-10.367-8.3828-18.75-18.75-18.75z"/>
</svg>
