<?xml version="1.0" encoding="UTF-8"?>
<svg width="1200pt" height="1200pt" version="1.1" viewBox="0 0 1200 1200" xmlns="http://www.w3.org/2000/svg">
 <path d="m640.71 520.41c9.7695 14.793 15.543 32.457 15.543 51.469s-5.7734 36.676-15.543 51.469l40.238 40.238c19.707-25.387 31.555-57.148 31.555-91.707 0-34.555-11.852-66.32-31.555-91.707z" fill="#fff"/>
 <path d="m614.25 649.93c-14.852 9.8828-32.625 15.695-51.75 15.695-19.012 0-36.676-5.7734-51.469-15.543l-40.238 40.238c25.387 19.707 57.148 31.555 91.707 31.555 34.555 0 66.523-11.926 91.949-31.742l-40.199-40.199z" fill="#fff"/>
 <path d="m484.45 623.62c-9.8828-14.852-15.695-32.625-15.695-51.75s5.8125-36.918 15.695-51.75l-40.199-40.199c-19.82 25.426-31.742 57.301-31.742 91.949s11.926 66.523 31.742 91.949z" fill="#fff"/>
 <path d="m243.75 693.75h37.52v37.5h-37.52z" fill="#fff"/>
 <path d="m511.03 493.67c14.793-9.7695 32.457-15.543 51.469-15.543 19.125 0 36.918 5.8125 51.75 15.695l40.199-40.199c-25.426-19.82-57.301-31.742-91.949-31.742s-66.32 11.852-91.707 31.555l40.238 40.238z" fill="#fff"/>
 <path d="m618.75 571.88c0 31.066-25.184 56.25-56.25 56.25s-56.25-25.184-56.25-56.25 25.184-56.25 56.25-56.25 56.25 25.184 56.25 56.25" fill="#fff"/>
 <path d="m900 150h-600c-82.707 0-150 67.293-150 150v525c0 69.73 47.906 128.34 112.5 145.07v23.68c0 31.012 25.238 56.25 56.25 56.25h37.5c31.012 0 56.25-25.238 56.25-56.25v-18.75h337.5v18.75c0 31.012 25.238 56.25 56.25 56.25h37.5c31.012 0 56.25-25.238 56.25-56.25v-18.75c82.707 0 150-67.293 150-150v-525c0-82.707-67.293-150-150-150zm-525 843.75c0 10.352-8.418 18.75-18.75 18.75h-37.5c-10.332 0-18.75-8.3984-18.75-18.75v-18.75h75zm487.5 0c0 10.352-8.3984 18.75-18.75 18.75h-37.5c-10.352 0-18.75-8.3984-18.75-18.75v-18.75h75zm93.75-206.25c0 51.695-42.055 93.75-93.75 93.75h-525c-51.695 0-93.75-42.055-93.75-93.75v-18.75c-20.68 0-37.5-16.82-37.5-37.5v-37.5c0-20.68 16.82-37.5 37.5-37.5v-187.5c-20.68 0-37.5-16.82-37.5-37.5v-37.5c0-20.68 16.82-37.5 37.5-37.5v-18.75c0-51.695 42.055-93.75 93.75-93.75h525c51.695 0 93.75 42.055 93.75 93.75z" fill="#fff"/>
 <path d="m243.75 393.75h37.52v37.5h-37.52z" fill="#fff"/>
 <path d="m862.5 281.25h-525c-31.012 0-56.25 25.238-56.25 56.25v18.75c20.68 0 37.5 16.82 37.5 37.5v37.5c0 20.68-16.82 37.5-37.5 37.5v187.5c20.68 0 37.5 16.82 37.5 37.5v37.5c0 20.68-16.82 37.5-37.5 37.5v18.75c0 31.012 25.238 56.25 56.25 56.25h525c31.012 0 56.25-25.238 56.25-56.25v-450c0-31.012-25.238-56.25-56.25-56.25zm-300 478.12c-103.39 0-187.5-84.113-187.5-187.5s84.113-187.5 187.5-187.5 187.5 84.113 187.5 187.5-84.113 187.5-187.5 187.5zm300-118.88c0 10.367-8.3828 18.75-18.75 18.75s-18.75-8.3828-18.75-18.75v-156c0-10.367 8.3828-18.75 18.75-18.75s18.75 8.3828 18.75 18.75z" fill="#fff"/>
</svg>
